:SAMPLES-PER-SECOND 30
:FULLY-SPECIFIED
:DEGREES
1110
root  -52.1697 38.9563 4.4646 -157.111 -85.4021 146.9
RightUpLeg  -9.0767 -4.18888 -11.2712
RightLeg  61.779 0.887298 1.2433
RightFoot  -1.90429 -0.779818 9.28199
RightToes  -5.8209e-011 0 -3.6325e-017
Spine  10.0192 1.28093 -1.40734
Spine1  10.256 1.95645 -4.70065
HEad  -19.3633 0.867112 -3.37849
LeftShoulder1  0.819923 1.03748 -27.115
LeftArm  -9.0957 -15.592 -35.6024
LeftForeArm  5.9043 -67.0964 -27.8692
LeftHand  -0.154053 0.018201 3.35896
RightShoulder  0.17671 -2.89537 24.0447
RightArm  -10.6927 13.7905 38.3271
RightForeArm  6.89651 72.0439 39.0139
RightHand  -0.308802 7.24024 -3.18823
LeftUpLeg  -12.0859 6.93442 -1.73979
LeftLeg  20.4111 -3.51804 -1.24389
LeftFoot  0.740147 -0.238366 2.20941
LeftToes  -8.31281e-010 4.41007e-011 3.74621e-011
1111
root  -52.6039 39.1395 4.61255 -159.484 -85.3805 149.854
RightUpLeg  -12.9358 -5.16394 -10.5832
RightLeg  61.2138 0.821599 1.12187
RightFoot  -2.68166 -0.770738 9.89505
RightToes  -5.8209e-011 0 -3.6325e-017
Spine  10.6991 1.13132 -1.34113
Spine1  10.0432 1.90418 -5.1257
HEad  -20.0635 0.157989 -2.86958
LeftShoulder1  0.994178 0.45043 -26.3872
LeftArm  -8.98006 -18.8296 -36.4029
LeftForeArm  2.95599 -64.2795 -24.1969
LeftHand  -0.160934 0.217545 3.6244
RightShoulder  0.186611 -2.85951 23.9101
RightArm  -9.97716 19.0323 37.9946
RightForeArm  -3.6807 67.3726 29.6229
RightHand  -0.32384 8.22392 -3.14002
LeftUpLeg  -11.3572 7.047 -1.66407
LeftLeg  19.2902 -3.49139 -1.40738
LeftFoot  0.522311 -0.249173 2.36747
LeftToes  -8.31281e-010 4.41007e-011 3.74621e-011
1112
root  -53.0219 39.3434 4.81144 -161.712 -85.1717 152.652
RightUpLeg  -15.7601 -5.59785 -9.94882
RightLeg  57.6465 -0.221245 -0.799893
RightFoot  -3.43709 -0.621011 8.65015
RightToes  -5.8209e-011 0 -3.6325e-017
Spine  11.2892 0.810757 -0.907636
Spine1  9.75868 1.82826 -5.56677
HEad  -20.5736 -0.0523629 -1.95537
LeftShoulder1  1.03971 0.254172 -25.802
LeftArm  -8.86541 -22.332 -37.0221
LeftForeArm  -0.14163 -61.1691 -21.1082
LeftHand  -0.174552 0.369036 4.02774
RightShoulder  0.278004 -2.53288 23.1576
RightArm  -9.09292 24.2312 38.5124
RightForeArm  -10.6603 61.8673 22.809
RightHand  -0.267362 8.9447 -2.54487
LeftUpLeg  -10.4209 7.12513 -1.70774
LeftLeg  17.7158 -3.18873 -1.52364
LeftFoot  0.607546 -0.286759 2.70475
LeftToes  -8.31281e-010 4.41007e-011 3.74621e-011
1113
root  -53.4081 39.5126 4.93868 -160.618 -85.0387 152.51
RightUpLeg  -17.5393 -5.42964 -9.39222
RightLeg  50.8508 -1.41403 -2.23097
RightFoot  -4.69292 -0.53876 8.70497
RightToes  -5.8209e-011 0 -3.6325e-017
Spine  11.4365 0.446216 -0.75948
Spine1  9.52115 1.70317 -6.03817
HEad  -20.9088 -0.439956 -1.13115
LeftShoulder1  1.09585 -0.03997 -24.7447
LeftArm  -8.82109 -25.5953 -37.8193
LeftForeArm  -2.94492 -57.5844 -18.284
LeftHand  -0.19108 0.106499 4.22597
RightShoulder  0.418132 -2.02731 22.4229
RightArm  -8.36963 29.2543 39.1265
RightForeArm  -15.1075 56.1917 18.2521
RightHand  -0.231649 8.85606 -2.27096
LeftUpLeg  -10.0206 6.56074 -1.95133
LeftLeg  16.1817 -2.55498 -1.51139
LeftFoot  0.814703 -0.311867 2.88183
LeftToes  -8.31281e-010 4.41007e-011 3.74621e-011
1114
root  -53.7773 39.6414 5.01036 -160.539 -85.1666 153.126
RightUpLeg  -17.6036 -4.55452 -8.66201
RightLeg  41.0899 -2.38817 -2.49878
RightFoot  -4.71071 -0.517571 8.36249
RightToes  -5.8209e-011 0 -3.6325e-017
Spine  11.7118 0.219728 -0.375369
Spine1  9.65617 1.7249 -6.41443
HEad  -21.588 -1.4633 -0.571051
LeftShoulder1  1.25679 -0.73198 -23.366
LeftArm  -9.70525 -28.7473 -39.5313
LeftForeArm  -4.05921 -53.4434 -15.6044
LeftHand  -0.189245 0.306747 4.32677
RightShoulder  0.475478 -1.7938 21.9238
RightArm  -7.13782 34.6674 39.4251
RightForeArm  -20.2997 49.9067 14.7161
RightHand  -0.281266 10.2403 -2.49712
LeftUpLeg  -9.63103 6.61239 -1.89176
LeftLeg  15.1706 -2.66079 -1.81563
LeftFoot  0.789545 -0.343567 3.18794
LeftToes  -8.31281e-010 4.41007e-011 3.74621e-011
1115
root  -54.1395 39.7148 5.04139 -156.099 -85.5022 149.611
RightUpLeg  -16.6046 -3.13897 -8.2569
RightLeg  29.1306 -3.3375 -2.1979
RightFoot  -4.39311 -0.583311 9.11836
RightToes  -5.8209e-011 0 -3.6325e-017
Spine  12.0951 -0.0600813 -0.413672
Spine1  9.14212 1.43847 -6.11811
HEad  -22.2296 -2.31238 -0.375207
LeftShoulder1  1.36669 -1.14071 -23.159
LeftArm  -9.02415 -32.6893 -39.521
LeftForeArm  -6.79299 -48.81 -13.2981
LeftHand  -0.202937 0.340438 4.66603
RightShoulder  0.628481 -1.14478 20.4303
RightArm  -6.15848 38.9257 40.0559
RightForeArm  -23.142 44.1753 12.2555
RightHand  -0.280312 11.0848 -2.38738
LeftUpLeg  -9.78959 6.65794 -2.08411
LeftLeg  14.6409 -3.07014 -2.14103
LeftFoot  0.488168 -0.336761 3.22095
LeftToes  -8.31281e-010 4.41007e-011 3.74621e-011
